# xmcd
#
# Track frame offsets: 
#        150
#        26448
#        48125
#        73795
#        93780
#        116970
#        139360
#        161870
#        183015
#        209490
#        233448
#        254300
#
# Disc length: 3697 seconds
#
# Revision: 8
# Processed by: cddbd v1.5.2PL0 Copyright (c) Steve Scherf et al.
# Submitted via: ExactAudioCopy v1.3
#
DISCID=a20e6f0c
DTITLE=Anita Baker - Rhythm Of Love
DYEAR=1994
DGENRE=Soul
TTITLE0=Rhythm Of Love
TTITLE1=The Look Of Love
TTITLE2=Body And Soul
TTITLE3=Baby
TTITLE4=I Apologize
TTITLE5=Plenty Of Room
TTITLE6=It's Been You
TTITLE7=You Belong To Me
TTITLE8=Wrong Man
TTITLE9=Only For A While
TTITLE10=Sometimes I Wonder Why
TTITLE11=My Funny Valentine
EXTD=
EXTT0=
EXTT1=
EXTT2=
EXTT3=
EXTT4=
EXTT5=
EXTT6=
EXTT7=
EXTT8=
EXTT9=
EXTT10=
EXTT11=
PLAYORDER=
